<svg width="18" height="17" viewBox="0 0 18 17" fill="none" xmlns="http://www.w3.org/2000/svg">
<path d="M6.04512 8.49999C6.04512 8.13449 6.33916 7.84549 6.71104 7.84549H11.9V3.774C11.9 1.6915 10.179 0 8.06881 0H3.84847C1.72965 0 0 1.6915 0 3.7825V13.226C0 15.3085 1.721 17 3.83982 17H8.05152C10.179 17 11.9 15.3 11.9 13.2175V9.15449H6.71104C6.33916 9.15449 6.04512 8.85699 6.04512 8.49999Z" fill="#A1A1A1"/>
<path d="M17.4676 8.03264L14.9856 5.55914C14.7306 5.30414 14.3141 5.30414 14.0591 5.56764C13.8041 5.82264 13.8041 6.23914 14.0591 6.49414L15.4191 7.84564H11.9001V9.15463H15.4191L14.0591 10.5061C13.8041 10.7611 13.8041 11.1776 14.0591 11.4326C14.1866 11.5601 14.3566 11.6281 14.5266 11.6281C14.6881 11.6281 14.8581 11.5601 14.9856 11.4326L17.4676 8.95913C17.5951 8.84013 17.6631 8.67013 17.6631 8.50013C17.6631 8.32164 17.5951 8.16014 17.4676 8.03264Z" fill="#A1A1A1"/>
</svg>
